<svg width="80" height="80" viewBox="0 0 80 80" fill="none" xmlns="http://www.w3.org/2000/svg">
<line x1="70.5261" y1="61.6572" x2="8.65723" y2="19.4739" stroke="#00BD95" stroke-width="5" stroke-linecap="round"/>
<line x1="2.5" y1="-2.5" x2="29.1228" y2="-2.5" transform="matrix(0.822192 -0.56921 -0.56921 -0.822192 46 45)" stroke="#00BD95" stroke-width="5" stroke-linecap="round"/>
<path d="M80 40C80 62.0914 62.0914 80 40 80C17.9086 80 0 62.0914 0 40C0 17.9086 17.9086 0 40 0C62.0914 0 80 17.9086 80 40ZM7.41626 40C7.41626 57.9955 22.0045 72.5837 40 72.5837C57.9955 72.5837 72.5837 57.9955 72.5837 40C72.5837 22.0045 57.9955 7.41626 40 7.41626C22.0045 7.41626 7.41626 22.0045 7.41626 40Z" fill="white"/>
</svg>
